<svg width="32.000000" height="32.000000" viewBox="0 0 32 32" fill="none" xmlns="http://www.w3.org/2000/svg" xmlns:xlink="http://www.w3.org/1999/xlink">
	<desc>
			Created with Pixso.
	</desc>
	<defs/>
	<path id="Vector" d="M17.12 28.75C19.75 24.76 19.36 19.31 15.81 15.76C13.62 13.57 12.45 10.75 12.45 7.63C12.45 5.79 12.94 3.94 13.77 2.33C9.39 3.79 6.08 9.05 6.08 15.37C6.08 22.77 10.65 28.8 16.2 28.8C16.49 28.8 16.78 28.8 17.12 28.75Z" fill="#D17842" fill-opacity="1.000000" fill-rule="nonzero"/>
	<path id="Vector" d="M13 13.7Q13.84 15.2 15.1 16.47Q15.81 17.18 16.35 18Q16.7 18.55 16.97 19.15Q17.27 19.78 17.46 20.45Q17.7 21.29 17.79 22.18Q17.86 22.97 17.8 23.74Q17.74 24.52 17.55 25.3Q17.35 26.13 17 26.9Q16.8 27.36 16.54 27.79Q16.39 27.8 16.2 27.8Q15.72 27.8 15.26 27.73Q13.98 27.55 12.77 26.87Q11.14 25.95 9.86 24.25Q8.55 22.53 7.83 20.28Q7.77 20.07 7.7 19.87Q7.08 17.71 7.08 15.37Q7.08 13.17 7.63 11.13Q8.16 9.17 9.14 7.54Q10.09 5.95 11.37 4.85Q11.62 4.64 11.88 4.44Q11.85 4.54 11.83 4.65Q11.45 6.14 11.45 7.63Q11.45 9.5 11.96 11.21Q12.14 11.83 12.39 12.43Q12.66 13.08 13 13.7ZM12.39 2.93C8.71 4.94 6.08 9.73 6.08 15.37C6.08 22.77 10.65 28.8 16.2 28.8C16.49 28.8 16.78 28.8 17.12 28.75C19.75 24.76 19.36 19.31 15.81 15.76C13.62 13.57 12.45 10.75 12.45 7.63C12.45 6.27 12.72 4.91 13.19 3.65C13.35 3.19 13.55 2.75 13.77 2.33C13.29 2.49 12.83 2.69 12.39 2.93Z" fill="#141921" fill-opacity="1.000000" fill-rule="evenodd"/>
	<path id="Vector" d="M14.9 2.69C14.61 2.69 13.57 2.86 13.23 2.9C10.6 6.89 11.74 12.18 15.29 15.73C17.48 17.92 18.65 20.74 18.65 23.85C18.65 25.7 17.65 27.08 16.82 28.69C21.2 27.23 25.02 22.44 25.02 16.12C25.02 8.72 20.5 2.64 14.9 2.69Z" fill="#D17842" fill-opacity="1.000000" fill-rule="nonzero"/>
	<path id="Vector" d="M13.23 2.9C10.6 6.89 11.74 12.18 15.29 15.73C17.48 17.92 18.65 20.74 18.65 23.85C18.65 25.16 18.15 26.23 17.57 27.31C17.32 27.76 17.06 28.22 16.82 28.69C17.32 28.52 17.81 28.31 18.3 28.06C22.02 26.11 25.02 21.72 25.02 16.12C25.02 8.72 20.5 2.64 14.9 2.69C14.61 2.69 13.57 2.86 13.23 2.9ZM19.13 26.36Q19.24 26.29 19.34 26.21Q19.42 26.15 19.49 26.08Q20.77 25.06 21.74 23.66Q21.99 23.3 22.21 22.94Q22.95 21.68 23.4 20.25Q23.46 20.05 23.52 19.86Q24.02 18.06 24.02 16.12Q24.02 13.72 23.38 11.52Q23.33 11.36 23.28 11.2Q22.56 8.94 21.26 7.21Q19.99 5.51 18.36 4.6Q17.2 3.95 15.96 3.76Q15.44 3.68 14.91 3.69Q14.76 3.69 13.84 3.83Q13.56 4.31 13.35 4.82Q13.07 5.52 12.93 6.28Q12.91 6.38 12.89 6.48Q12.67 7.85 12.93 9.31Q13.2 10.85 13.99 12.32Q14.13 12.58 14.28 12.84Q15 14.02 16 15.02Q17.26 16.28 18.1 17.79Q18.44 18.4 18.72 19.06Q18.96 19.66 19.14 20.27Q19.65 21.99 19.65 23.85Q19.65 25.04 19.17 26.27Q19.15 26.32 19.13 26.36Z" fill="#141921" fill-opacity="1.000000" fill-rule="evenodd"/>
</svg>
