<svg width="24.000000" height="24.000000" viewBox="0 0 24 24" fill="none" xmlns="http://www.w3.org/2000/svg" xmlns:xlink="http://www.w3.org/1999/xlink">
	<desc>
			Created with Pixso.
	</desc>
	<defs/>
	<path d="M20.12 7.45C19.07 2.83 15.04 0.75 11.5 0.75C11.5 0.75 11.5 0.75 11.49 0.75C7.95 0.75 3.91 2.82 2.87 7.44C1.7 12.6 4.85 16.96 7.72 19.71C8.78 20.74 10.14 21.25 11.5 21.25C12.85 21.25 14.22 20.74 15.27 19.71C18.12 16.96 21.29 12.61 20.12 7.45ZM11.5 12.46C9.76 12.46 8.35 11.05 8.35 9.31C8.35 7.57 9.76 6.16 11.5 6.16C13.24 6.16 14.64 7.57 14.64 9.31C14.64 11.05 13.24 12.46 11.5 12.46Z" fill="#D17842" fill-opacity="1.000000" fill-rule="nonzero"/>
	<g opacity="0.000000"/>
	<g opacity="0.000000"/>
</svg>
